HIERARCHY
ROOT hip
{
  OFFSET 0 90.174 2.4664
  CHANNELS 6 Xposition Yposition Zposition Zrotation Xrotation Yrotation
  JOINT abdomen
  {
    OFFSET 0 -1.186 -1.5018
    CHANNELS 6 Xposition Yposition Zposition Zrotation Xrotation Yrotation
    JOINT abdomen2
    {
      OFFSET 0 9.964 0.2134
      CHANNELS 6 Xposition Yposition Zposition Zrotation Xrotation Yrotation
      JOINT chest
      {
        OFFSET 0 13.134 -3.2573
        CHANNELS 6 Xposition Yposition Zposition Zrotation Xrotation Yrotation
        JOINT neck
        {
          OFFSET 0 20.686 -1.6905
          CHANNELS 6 Xposition Yposition Zposition Zrotation Xrotation Yrotation
          JOINT head
          {
            OFFSET 0 7.238 -0.1237
            CHANNELS 6 Xposition Yposition Zposition Zrotation Xrotation Yrotation
            End Site
            {
              OFFSET 0 0 0
            }
          }
        }
        JOINT lCollar
        {
          OFFSET 1.7069 20.075 5.0056
          CHANNELS 6 Xposition Yposition Zposition Zrotation Xrotation Yrotation
          JOINT lShldr
          {
            OFFSET 13.6458 -0.047 -4.849
            CHANNELS 6 Xposition Yposition Zposition Zrotation Xrotation Yrotation
            JOINT lForeArm
            {
              OFFSET 28.3255 -0.9759 2.2888
              CHANNELS 6 Xposition Yposition Zposition Zrotation Xrotation Yrotation
              JOINT lHand
              {
                OFFSET 22.1583 -0.53 10.8316
                CHANNELS 6 Xposition Yposition Zposition Zrotation Xrotation Yrotation
                JOINT lThumb1
                {
                  OFFSET 0.786 0.112 2.5817
                  CHANNELS 6 Xposition Yposition Zposition Zrotation Xrotation Yrotation
                  JOINT lThumb2
                  {
                    OFFSET 0.3601 -0.878 4.2331
                    CHANNELS 6 Xposition Yposition Zposition Zrotation Xrotation Yrotation
                    JOINT lThumb2_End
                    {
                      OFFSET 1.8127 -1.216 2.2227
                      CHANNELS 6 Xposition Yposition Zposition Zrotation Xrotation Yrotation
                      End Site
                      {
                        OFFSET 0.0181 -0.0122 0.0222
                      }
                    }
                  }
                }
                JOINT lCarpal1
                {
                  OFFSET 0.9571 1.114 1.7695
                  CHANNELS 6 Xposition Yposition Zposition Zrotation Xrotation Yrotation
                  JOINT lIndex1
                  {
                    OFFSET 4.1246 0.487 4.1451
                    CHANNELS 6 Xposition Yposition Zposition Zrotation Xrotation Yrotation
                    JOINT lIndex2
                    {
                      OFFSET 3.4052 -1.454 2.7682
                      CHANNELS 6 Xposition Yposition Zposition Zrotation Xrotation Yrotation
                      JOINT lIndex2_End
                      {
                        OFFSET 1.4531 -1.795 1.2713
                        CHANNELS 6 Xposition Yposition Zposition Zrotation Xrotation Yrotation
                        End Site
                        {
                          OFFSET 0.0145 -0.0179 0.0127
                        }
                      }
                    }
                  }
                  JOINT lMid1
                  {
                    OFFSET 5.6954 0.21 2.1184
                    CHANNELS 6 Xposition Yposition Zposition Zrotation Xrotation Yrotation
                    JOINT lMid2
                    {
                      OFFSET 3.9766 -1.54 2.3863
                      CHANNELS 6 Xposition Yposition Zposition Zrotation Xrotation Yrotation
                      JOINT lMid2_End
                      {
                        OFFSET 1.4042 -1.926 1.125
                        CHANNELS 6 Xposition Yposition Zposition Zrotation Xrotation Yrotation
                        End Site
                        {
                          OFFSET 0.014 -0.0193 0.0113
                        }
                      }
                    }
                  }
                }
                JOINT lCarpal2
                {
                  OFFSET 2.0956 0.66 -0.3894
                  CHANNELS 6 Xposition Yposition Zposition Zrotation Xrotation Yrotation
                  JOINT lRing1
                  {
                    OFFSET 5.0395 -0.09 2.4971
                    CHANNELS 6 Xposition Yposition Zposition Zrotation Xrotation Yrotation
                    JOINT lRing2
                    {
                      OFFSET 3.7921 -1.552 1.4806
                      CHANNELS 6 Xposition Yposition Zposition Zrotation Xrotation Yrotation
                      JOINT lRing2_End
                      {
                        OFFSET 1.4655 -1.808 0.9609
                        CHANNELS 6 Xposition Yposition Zposition Zrotation Xrotation Yrotation
                        End Site
                        {
                          OFFSET 0.0147 -0.0181 0.0096
                        }
                      }
                    }
                  }
                  JOINT lPinky1
                  {
                    OFFSET 4.9141 -1.269 0.3591
                    CHANNELS 6 Xposition Yposition Zposition Zrotation Xrotation Yrotation
                    JOINT lPinky2
                    {
                      OFFSET 3.1477 -1.685 0.8462
                      CHANNELS 6 Xposition Yposition Zposition Zrotation Xrotation Yrotation
                      JOINT lPinky2_End
                      {
                        OFFSET 0.8055 -1.585 0.7955
                        CHANNELS 6 Xposition Yposition Zposition Zrotation Xrotation Yrotation
                        End Site
                        {
                          OFFSET 0.0081 -0.0158 0.008
                        }
                      }
                    }
                  }
                }
              }
            }
          }
        }
        JOINT rCollar
        {
          OFFSET -1.7069 20.075 5.0056
          CHANNELS 6 Xposition Yposition Zposition Zrotation Xrotation Yrotation
          JOINT rShldr
          {
            OFFSET -13.6458 -0.047 -4.849
            CHANNELS 6 Xposition Yposition Zposition Zrotation Xrotation Yrotation
            JOINT rForeArm
            {
              OFFSET -28.3255 -0.9759 2.2888
              CHANNELS 6 Xposition Yposition Zposition Zrotation Xrotation Yrotation
              JOINT rHand
              {
                OFFSET -22.1583 -0.53 10.8316
                CHANNELS 6 Xposition Yposition Zposition Zrotation Xrotation Yrotation
                JOINT rThumb1
                {
                  OFFSET -0.786 0.112 2.5817
                  CHANNELS 6 Xposition Yposition Zposition Zrotation Xrotation Yrotation
                  JOINT rThumb2
                  {
                    OFFSET -0.3601 -0.878 4.2331
                    CHANNELS 6 Xposition Yposition Zposition Zrotation Xrotation Yrotation
                    JOINT rThumb2_End
                    {
                      OFFSET -1.8127 -1.216 2.2227
                      CHANNELS 6 Xposition Yposition Zposition Zrotation Xrotation Yrotation
                      End Site
                      {
                        OFFSET -0.0181 -0.0122 0.0222
                      }
                    }
                  }
                }
                JOINT rCarpal1
                {
                  OFFSET -0.9571 1.114 1.7695
                  CHANNELS 6 Xposition Yposition Zposition Zrotation Xrotation Yrotation
                  JOINT rIndex1
                  {
                    OFFSET -4.1246 0.487 4.1451
                    CHANNELS 6 Xposition Yposition Zposition Zrotation Xrotation Yrotation
                    JOINT rIndex2
                    {
                      OFFSET -3.4052 -1.454 2.7682
                      CHANNELS 6 Xposition Yposition Zposition Zrotation Xrotation Yrotation
                      JOINT rIndex2_End
                      {
                        OFFSET -1.4531 -1.795 1.2713
                        CHANNELS 6 Xposition Yposition Zposition Zrotation Xrotation Yrotation
                        End Site
                        {
                          OFFSET -0.0145 -0.018 0.0127
                        }
                      }
                    }
                  }
                  JOINT rMid1
                  {
                    OFFSET -5.6954 0.21 2.1184
                    CHANNELS 6 Xposition Yposition Zposition Zrotation Xrotation Yrotation
                    JOINT rMid2
                    {
                      OFFSET -3.9766 -1.54 2.3863
                      CHANNELS 6 Xposition Yposition Zposition Zrotation Xrotation Yrotation
                      JOINT rMid2_End
                      {
                        OFFSET -1.4042 -1.926 1.125
                        CHANNELS 6 Xposition Yposition Zposition Zrotation Xrotation Yrotation
                        End Site
                        {
                          OFFSET -0.014 -0.0193 0.0113
                        }
                      }
                    }
                  }
                }
                JOINT rCarpal2
                {
                  OFFSET -2.0956 0.66 -0.3894
                  CHANNELS 6 Xposition Yposition Zposition Zrotation Xrotation Yrotation
                  JOINT rRing1
                  {
                    OFFSET -5.0395 -0.09 2.4971
                    CHANNELS 6 Xposition Yposition Zposition Zrotation Xrotation Yrotation
                    JOINT rRing2
                    {
                      OFFSET -3.7921 -1.552 1.4806
                      CHANNELS 6 Xposition Yposition Zposition Zrotation Xrotation Yrotation
                      JOINT rRing2_End
                      {
                        OFFSET -1.4655 -1.808 0.9609
                        CHANNELS 6 Xposition Yposition Zposition Zrotation Xrotation Yrotation
                        End Site
                        {
                          OFFSET -0.0147 -0.0181 0.0096
                        }
                      }
                    }
                  }
                  JOINT rPinky1
                  {
                    OFFSET -4.9141 -1.269 0.3592
                    CHANNELS 6 Xposition Yposition Zposition Zrotation Xrotation Yrotation
                    JOINT rPinky2
                    {
                      OFFSET -3.1477 -1.685 0.8462
                      CHANNELS 6 Xposition Yposition Zposition Zrotation Xrotation Yrotation
                      JOINT rPinky2_End
                      {
                        OFFSET -0.8055 -1.585 0.7955
                        CHANNELS 6 Xposition Yposition Zposition Zrotation Xrotation Yrotation
                        End Site
                        {
                          OFFSET -0.0081 -0.0158 0.008
                        }
                      }
                    }
                  }
                }
              }
            }
          }
        }
      }
    }
  }
  JOINT lThigh
  {
    OFFSET 8.367 -8.2066 0.5982
    CHANNELS 6 Xposition Yposition Zposition Zrotation Xrotation Yrotation
    JOINT lShin
    {
      OFFSET 2.1923 -43.463 -0.4932
      CHANNELS 6 Xposition Yposition Zposition Zrotation Xrotation Yrotation
      JOINT lFoot
      {
        OFFSET 0.7333 -45.8593 -2.6451
        CHANNELS 6 Xposition Yposition Zposition Zrotation Xrotation Yrotation
        End Site
        {
          OFFSET 2.6618 -4.2699 12.3931
        }
      }
    }
  }
  JOINT rThigh
  {
    OFFSET -8.367 -8.2066 0.5982
    CHANNELS 6 Xposition Yposition Zposition Zrotation Xrotation Yrotation
    JOINT rShin
    {
      OFFSET -2.1923 -43.463 -0.4931
      CHANNELS 6 Xposition Yposition Zposition Zrotation Xrotation Yrotation
      JOINT rFoot
      {
        OFFSET -0.7333 -45.8593 -2.6451
        CHANNELS 6 Xposition Yposition Zposition Zrotation Xrotation Yrotation
        End Site
        {
          OFFSET -2.6618 -4.2699 12.3931
        }
      }
    }
  }
}
MOTION
Frames:	4
Frame Time:	0.0333333
0 90.174 2.4664 0 0 -0 0 -1.186 -1.5018 0 0 -0 0 9.964 0.2134 0 0 -0 0 13.134 -3.2573 0 0 -0 0 20.686 -1.6905 0 0 -0 0 7.238 -0.1237 0 0 -0 1.7069 20.075 5.0056 0 0 -0 13.6458 -0.047 -4.849 1.66051 0.0835086 5.75766 28.3255 -0.9759 2.2888 -0.0175111 0.895433 15.7816 22.1583 -0.53 10.8316 7.95139e-016 -1.98785e-016 -0 0.786 0.112 2.5817 5.46658e-016 -3.97569e-016 -0 0.3601 -0.878 4.2331 5.96354e-016 0 -0 1.8127 -1.216 2.2227 3.97569e-016 1.98785e-016 9.54166e-015 0.9571 1.114 1.7695 1.49089e-016 -3.97569e-016 -0 4.1246 0.487 4.1451 6.4605e-016 0 3.18055e-015 3.4052 -1.454 2.7682 5.96354e-016 0 3.18055e-015 1.4531 -1.795 1.2713 8.94531e-016 -1.98785e-016 6.36111e-015 5.6954 0.21 2.1184 6.4605e-016 0 3.18055e-015 3.9766 -1.54 2.3863 5.96354e-016 0 3.18055e-015 1.4042 -1.926 1.125 8.94531e-016 -1.98785e-016 6.36111e-015 2.0956 0.66 -0.3894 1.49089e-016 -3.97569e-016 -0 5.0395 -0.09 2.4971 6.4605e-016 0 3.18055e-015 3.7921 -1.552 1.4806 5.96354e-016 0 3.18055e-015 1.4655 -1.808 0.9609 8.94531e-016 -1.98785e-016 6.36111e-015 4.9141 -1.269 0.3591 6.4605e-016 0 3.18055e-015 3.1477 -1.685 0.8462 5.96354e-016 0 3.18055e-015 0.8055 -1.585 0.7955 8.94531e-016 -1.98785e-016 6.36111e-015 -1.7069 20.075 5.0056 0 0 -0 -13.6458 -0.047 -4.849 -1.4496 0.0636048 -5.0245 -28.3255 -0.9759 2.2888 -1.74811 1.20616 -16.8394 -22.1583 -0.53 10.8316 -1.19271e-015 1.98785e-016 -3.18055e-015 -0.786 0.112 2.5817 -3.97569e-016 1.98785e-016 -3.18055e-015 -0.3601 -0.878 4.2331 -2.98177e-016 1.98785e-016 -3.18055e-015 -1.8127 -1.216 2.2227 -2.98177e-016 3.97569e-016 -0 -0.9571 1.114 1.7695 4.96962e-016 0 -6.36111e-015 -4.1246 0.487 4.1451 -9.93923e-017 3.97569e-016 -0 -3.4052 -1.454 2.7682 -8.94531e-016 5.96354e-016 -0 -1.4531 -1.795 1.2713 -3.97569e-016 3.97569e-016 -0 -5.6954 0.21 2.1184 -9.93923e-017 3.97569e-016 -0 -3.9766 -1.54 2.3863 -8.94531e-016 5.96354e-016 -0 -1.4042 -1.926 1.125 -3.97569e-016 3.97569e-016 -0 -2.0956 0.66 -0.3894 4.96962e-016 0 -6.36111e-015 -5.0395 -0.09 2.4971 -9.93923e-017 3.97569e-016 -0 -3.7921 -1.552 1.4806 -8.94531e-016 5.96354e-016 -0 -1.4655 -1.808 0.9609 -3.97569e-016 3.97569e-016 -0 -4.9141 -1.269 0.3592 -9.93923e-017 3.97569e-016 -0 -3.1477 -1.685 0.8462 -8.94531e-016 5.96354e-016 -0 -0.8055 -1.585 0.7955 -3.97569e-016 3.97569e-016 -0 8.367 -8.2066 0.5982 -4.66115 -1.03232 0.120763 2.1923 -43.463 -0.4932 0.00990601 1.55097 0.177175 0.7333 -45.8593 -2.6451 4.65196 -0.54114 -0.255042 -8.367 -8.2066 0.5982 4.66115 -1.03222 -0.120763 -2.1923 -43.463 -0.4931 -0.00990459 1.5509 -0.177176 -0.7333 -45.8593 -2.6451 -4.65196 -0.541171 0.255041 
0.000225996 90.7335 2.44037 0 0 -0 0 -1.186 -1.5018 -0.347404 0.541695 -0.00473083 0 9.964 0.2134 -0.694809 1.08341 -0.00617721 2.22045e-016 13.134 -3.2573 -0.694809 1.08341 -0.00617721 -4.44089e-016 20.686 -1.6905 -5.07912 9.96197 -10.1222 0 7.238 -0.1237 -9.31467 -14.8131 -2.40405 1.7069 20.075 5.0056 1.5613 -2.40749 -41.3285 13.6458 -0.047 -4.849 -9.73456 -29.9668 -29.5611 28.3255 -0.9759 2.2888 13.27 -7.17319 -30.7138 22.1583 -0.53 10.8316 -51.7336 -31.6697 -52.808 0.786 0.112 2.5817 0 0 -0 0.3601 -0.878 4.2331 -1.17407e-006 -3.54658e-006 -2.77753e-007 1.8127 -1.216 2.2227 2.06533e-006 1.10399e-006 -1.70502e-006 0.9571 1.114 1.7695 0 0 -0 4.1246 0.487 4.1451 -6.36111e-015 3.18055e-015 6.36111e-015 3.4052 -1.454 2.7682 -1.17407e-006 -3.54658e-006 -2.77753e-007 1.4531 -1.795 1.2713 2.06533e-006 1.10399e-006 -1.70502e-006 5.6954 0.21 2.1184 -6.36111e-015 3.18055e-015 6.36111e-015 3.9766 -1.54 2.3863 -1.17407e-006 -3.54658e-006 -2.77753e-007 1.4042 -1.926 1.125 2.06533e-006 1.10399e-006 -1.70502e-006 2.0956 0.66 -0.3894 0 0 -0 5.0395 -0.09 2.4971 -6.36111e-015 3.18055e-015 6.36111e-015 3.7921 -1.552 1.4806 -1.17407e-006 -3.54658e-006 -2.77753e-007 1.4655 -1.808 0.9609 2.06533e-006 1.10399e-006 -1.70502e-006 4.9141 -1.269 0.3591 -6.36111e-015 3.18055e-015 6.36111e-015 3.1477 -1.685 0.8462 -1.17407e-006 -3.54658e-006 -2.77753e-007 0.8055 -1.585 0.7955 2.06533e-006 1.10399e-006 -1.70502e-006 -1.7069 20.075 5.0056 -1.56454 -2.40867 41.3247 -13.6458 -0.047 -4.849 9.94149 -29.8623 30.3952 -28.3255 -0.9759 2.2888 -14.8884 -7.92404 29.4672 -22.1583 -0.53 10.8316 52.378 -32.6532 52.0328 -0.786 0.112 2.5817 1.59028e-015 -6.36111e-015 -3.18055e-015 -0.3601 -0.878 4.2331 -3.18055e-015 -1.27222e-014 -3.18055e-015 -1.8127 -1.216 2.2227 3.18055e-015 -9.54166e-015 3.18055e-015 -0.9571 1.114 1.7695 1.59028e-015 -3.18055e-015 -3.18055e-015 -4.1246 0.487 4.1451 -3.18055e-015 -3.18055e-015 6.36111e-015 -3.4052 -1.454 2.7682 4.77083e-015 -3.18055e-015 -0 -1.4531 -1.795 1.2713 -6.36111e-015 -6.36111e-015 -6.36111e-015 -5.6954 0.21 2.1184 -3.18055e-015 -3.18055e-015 6.36111e-015 -3.9766 -1.54 2.3863 4.77083e-015 -3.18055e-015 -0 -1.4042 -1.926 1.125 -6.36111e-015 -6.36111e-015 -6.36111e-015 -2.0956 0.66 -0.3894 1.59028e-015 -3.18055e-015 -3.18055e-015 -5.0395 -0.09 2.4971 -3.18055e-015 -3.18055e-015 6.36111e-015 -3.7921 -1.552 1.4806 4.77083e-015 -3.18055e-015 -0 -1.4655 -1.808 0.9609 -6.36111e-015 -6.36111e-015 -6.36111e-015 -4.9141 -1.269 0.3592 -3.18055e-015 -3.18055e-015 6.36111e-015 -3.1477 -1.685 0.8462 4.77083e-015 -3.18055e-015 -0 -0.8055 -1.585 0.7955 -6.36111e-015 -6.36111e-015 -6.36111e-015 8.367 -8.2066 0.5982 1.47916 -5.42999 0.756174 2.1923 -43.463 -0.4932 -1.85301 9.68578 0.662042 0.7333 -45.8593 -2.6451 5.44988 2.44794 -3.43746 -8.367 -8.2066 0.5982 -1.4828 -5.4311 -0.759816 -2.1923 -43.463 -0.4931 1.8498 9.68722 -0.665356 -0.7333 -45.8593 -2.6451 -5.4534 2.44705 3.43401 
0.000225996 90.7335 2.44037 0 0 -0 0 -1.186 -1.5018 -0.347404 0.541695 -0.00473083 0 9.964 0.2134 -0.694809 1.08341 -0.00617721 2.22045e-016 13.134 -3.2573 -0.694809 1.08341 -0.00617721 -4.44089e-016 20.686 -1.6905 -5.25531 9.9592 -10.0916 0 7.238 -0.1237 -9.31464 -14.8131 -2.67816 1.7069 20.075 5.0056 1.5613 -2.40749 -41.3285 13.6458 -0.047 -4.849 -9.73456 -29.9668 -29.5611 28.3255 -0.9759 2.2888 13.27 -7.17319 -30.7138 22.1583 -0.53 10.8316 -51.7336 -31.6697 -52.808 0.786 0.112 2.5817 0 0 -0 0.3601 -0.878 4.2331 -1.17407e-006 -3.54658e-006 -2.77753e-007 1.8127 -1.216 2.2227 2.06533e-006 1.10399e-006 -1.70502e-006 0.9571 1.114 1.7695 0 0 -0 4.1246 0.487 4.1451 -6.36111e-015 3.18055e-015 6.36111e-015 3.4052 -1.454 2.7682 -1.17407e-006 -3.54658e-006 -2.77753e-007 1.4531 -1.795 1.2713 2.06533e-006 1.10399e-006 -1.70502e-006 5.6954 0.21 2.1184 -6.36111e-015 3.18055e-015 6.36111e-015 3.9766 -1.54 2.3863 -1.17407e-006 -3.54658e-006 -2.77753e-007 1.4042 -1.926 1.125 2.06533e-006 1.10399e-006 -1.70502e-006 2.0956 0.66 -0.3894 0 0 -0 5.0395 -0.09 2.4971 -6.36111e-015 3.18055e-015 6.36111e-015 3.7921 -1.552 1.4806 -1.17407e-006 -3.54658e-006 -2.77753e-007 1.4655 -1.808 0.9609 2.06533e-006 1.10399e-006 -1.70502e-006 4.9141 -1.269 0.3591 -6.36111e-015 3.18055e-015 6.36111e-015 3.1477 -1.685 0.8462 -1.17407e-006 -3.54658e-006 -2.77753e-007 0.8055 -1.585 0.7955 2.06533e-006 1.10399e-006 -1.70502e-006 -1.7069 20.075 5.0056 -1.56454 -2.40867 41.3247 -13.6458 -0.047 -4.849 9.94149 -29.8623 30.3952 -28.3255 -0.9759 2.2888 -14.8884 -7.92404 29.4672 -22.1583 -0.53 10.8316 52.378 -32.6532 52.0329 -0.786 0.112 2.5817 4.77083e-015 0 -3.18055e-015 -0.3601 -0.878 4.2331 0 0 -3.18055e-015 -1.8127 -1.216 2.2227 5.18949e-007 -5.72722e-007 1.48211e-006 -0.9571 1.114 1.7695 1.59028e-015 3.18055e-015 -0 -4.1246 0.487 4.1451 1.59028e-015 0 3.18055e-015 -3.4052 -1.454 2.7682 -1.59028e-015 -6.36111e-015 -3.18055e-015 -1.4531 -1.795 1.2713 5.18949e-007 -5.72722e-007 1.48211e-006 -5.6954 0.21 2.1184 1.59028e-015 0 3.18055e-015 -3.9766 -1.54 2.3863 -1.59028e-015 -6.36111e-015 -3.18055e-015 -1.4042 -1.926 1.125 5.18949e-007 -5.72722e-007 1.48211e-006 -2.0956 0.66 -0.3894 1.59028e-015 3.18055e-015 -0 -5.0395 -0.09 2.4971 1.59028e-015 0 3.18055e-015 -3.7921 -1.552 1.4806 -1.59028e-015 -6.36111e-015 -3.18055e-015 -1.4655 -1.808 0.9609 5.18949e-007 -5.72722e-007 1.48211e-006 -4.9141 -1.269 0.3592 1.59028e-015 0 3.18055e-015 -3.1477 -1.685 0.8462 -1.59028e-015 -6.36111e-015 -3.18055e-015 -0.8055 -1.585 0.7955 5.18949e-007 -5.72722e-007 1.48211e-006 8.367 -8.2066 0.5982 1.47916 -5.42999 0.756174 2.1923 -43.463 -0.4932 -1.85301 9.68578 0.662042 0.7333 -45.8593 -2.6451 5.44988 2.44794 -3.43746 -8.367 -8.2066 0.5982 -1.4828 -5.4311 -0.759816 -2.1923 -43.463 -0.4931 1.8498 9.68722 -0.665356 -0.7333 -45.8593 -2.6451 -5.4534 2.44705 3.43401 
0.000226002 90.7335 2.44037 0 0 -0 0 -1.186 -1.5018 -0.347404 0.541695 -0.00473083 0 9.964 0.2134 -0.694809 1.08341 -0.00617722 0 13.134 -3.2573 -0.694809 1.08341 -0.00617722 -8.88178e-016 20.686 -1.6905 -5.43138 9.95608 -10.0612 -3.55271e-015 7.238 -0.1237 -9.31463 -14.8131 -2.95238 1.7069 20.075 5.0056 1.5613 -2.40749 -41.3285 13.6458 -0.047 -4.849 -9.73456 -29.9668 -29.5611 28.3255 -0.9759 2.2888 13.27 -7.17319 -30.7138 22.1583 -0.53 10.8316 -51.7336 -31.6697 -52.808 0.786 0.112 2.5817 -9.54166e-015 3.18055e-015 -3.18055e-015 0.3601 -0.878 4.2331 -3.18055e-015 0 3.18055e-015 1.8127 -1.216 2.2227 -3.18055e-015 -3.18055e-015 -0 0.9571 1.114 1.7695 -9.54166e-015 3.18055e-015 -3.18055e-015 4.1246 0.487 4.1451 -3.18055e-015 0 1.27222e-014 3.4052 -1.454 2.7682 -3.53113e-031 6.36111e-015 3.18055e-015 1.4531 -1.795 1.2713 -3.18055e-015 6.36111e-015 -0 5.6954 0.21 2.1184 -3.18055e-015 0 1.27222e-014 3.9766 -1.54 2.3863 -3.53113e-031 6.36111e-015 3.18055e-015 1.4042 -1.926 1.125 -3.18055e-015 6.36111e-015 -0 2.0956 0.66 -0.3894 -9.54166e-015 3.18055e-015 -3.18055e-015 5.0395 -0.09 2.4971 -3.18055e-015 0 1.27222e-014 3.7921 -1.552 1.4806 -3.53113e-031 6.36111e-015 3.18055e-015 1.4655 -1.808 0.9609 -3.18055e-015 6.36111e-015 -0 4.9141 -1.269 0.3591 -3.18055e-015 0 1.27222e-014 3.1477 -1.685 0.8462 -3.53113e-031 6.36111e-015 3.18055e-015 0.8055 -1.585 0.7955 -3.18055e-015 6.36111e-015 -0 -1.7069 20.075 5.0056 -1.56454 -2.40867 41.3247 -13.6458 -0.047 -4.849 9.94149 -29.8623 30.3952 -28.3255 -0.9759 2.2888 -14.8884 -7.92404 29.4671 -22.1583 -0.53 10.8316 52.3779 -32.6532 52.0328 -0.786 0.112 2.5817 1.19229e-006 -1.95068e-006 -9.51454e-007 -0.3601 -0.878 4.2331 6.36111e-015 0 -0 -1.8127 -1.216 2.2227 1.25299e-006 3.22124e-006 -1.56856e-006 -0.9571 1.114 1.7695 -1.27222e-014 0 -3.18055e-015 -4.1246 0.487 4.1451 1.19229e-006 -1.95068e-006 -9.51454e-007 -3.4052 -1.454 2.7682 4.77083e-015 0 -9.54166e-015 -1.4531 -1.795 1.2713 1.25299e-006 3.22124e-006 -1.56856e-006 -5.6954 0.21 2.1184 1.19229e-006 -1.95068e-006 -9.51454e-007 -3.9766 -1.54 2.3863 4.77083e-015 0 -9.54166e-015 -1.4042 -1.926 1.125 1.25299e-006 3.22124e-006 -1.56856e-006 -2.0956 0.66 -0.3894 -1.27222e-014 0 -3.18055e-015 -5.0395 -0.09 2.4971 1.19229e-006 -1.95068e-006 -9.51454e-007 -3.7921 -1.552 1.4806 4.77083e-015 0 -9.54166e-015 -1.4655 -1.808 0.9609 1.25299e-006 3.22124e-006 -1.56856e-006 -4.9141 -1.269 0.3592 1.19229e-006 -1.95068e-006 -9.51454e-007 -3.1477 -1.685 0.8462 4.77083e-015 0 -9.54166e-015 -0.8055 -1.585 0.7955 1.25299e-006 3.22124e-006 -1.56856e-006 8.367 -8.2066 0.5982 1.47916 -5.42999 0.756174 2.1923 -43.463 -0.4932 -1.85301 9.68578 0.662043 0.7333 -45.8593 -2.6451 5.44988 2.44794 -3.43746 -8.367 -8.2066 0.5982 -1.4828 -5.4311 -0.759816 -2.1923 -43.463 -0.4931 1.8498 9.68722 -0.665356 -0.7333 -45.8593 -2.6451 -5.4534 2.44705 3.43401 
